<svg role="img" viewBox="0 0 24 24" xmlns="http://www.w3.org/2000/svg"><title>Aston Martin</title><path d="M7.281 11.234h.282l-.147-.372-.135.372zm-.294.362.418-.983h.113l.418.983H7.72l-.09-.249h-.373l-.101.249h-.17zm.983-.046-.012-.18c.09.079.192.124.294.124a.24.24 0 0 0 .135-.034.114.114 0 0 0 .012-.17c-.034-.044-.102-.067-.249-.135-.135-.068-.203-.158-.203-.282 0-.079.034-.147.09-.203.125-.113.34-.068.362-.068.045.011.079.023.113.034l.01.17a.46.46 0 0 0-.123-.068c-.136-.046-.283-.012-.283.101 0 .057.034.09.113.136.17.09.26.124.316.203.08.09.08.282-.045.372a.443.443 0 0 1-.26.08.782.782 0 0 1-.27-.08zm.937.046v-.87c-.08 0-.17.012-.294.023l.011-.147h.757l.011.147c-.158-.023-.248-.023-.293-.023v.858h-.192v.012zm.982-.102c.158 0 .293-.124.293-.395 0-.023 0-.237-.135-.35a.239.239 0 0 0-.158-.045c-.203 0-.294.192-.294.395.012.27.147.395.294.395zm0 .124c-.294 0-.497-.214-.497-.508 0-.305.203-.508.497-.508s.497.203.497.508c0 .294-.204.508-.497.508zm.655-.022v-.983h.101l.587.666v-.666h.136v.983h-.102l-.587-.667v.667h-.135zm1.354 0 .113-.983h.102l.35.689.339-.689h.101l.113.983h-.203l-.057-.61-.27.564h-.09l-.283-.564-.057.598h-.158v.012zm1.48-.362h.282l-.147-.372-.136.372zm-.294.362.417-.983h.113l.418.983h-.214l-.09-.249h-.373l-.102.249h-.17zm1.208-.542c.022 0 .056.01.079.01.158 0 .203-.09.203-.168 0-.125-.09-.17-.203-.17h-.068v.328h-.011zm-.18.542v-.971c.056-.012.123-.012.225-.012.09 0 .17.012.226.034.09.034.203.102.203.249a.336.336 0 0 1-.057.169.321.321 0 0 1-.158.102l.35.44h-.225l-.305-.418h-.068v.418h-.192v-.011zm1.015 0v-.87c-.079 0-.17.012-.293.023l.01-.147h.757l.012.147c-.158-.023-.249-.023-.294-.023v.858h-.192v.012zm.61-.983h.192v.983h-.192v-.983zm.384.983v-.983h.101l.587.666v-.666h.136v.983h-.102l-.587-.667v.667h-.135zm7.834-2.134a.384.384 0 0 0-.338-.18h-9.675c-.158 0-.407 0-.666.259a.935.935 0 0 0-.17.237c-.079.147-.135.248-.406.248h-1.411c-.26 0-.328-.101-.407-.248-.045-.08-.09-.158-.169-.237-.26-.26-.508-.26-.666-.26H.383c-.158 0-.282.068-.339.18-.067.114-.056.26.023.385l.17.293c.09.158.214.18.304.203.08.012.136.023.192.136l.158.27c.124.227.26.25.361.272.08.011.158.022.26.203.102.18.248.452.621.564.034.012 3.601 1.05 3.613 1.05.372.125.474.26.587.43.067.1.26.372.71.496l3.433.926a.712.712 0 0 0 .711-.18l.621-.588c.09-.079.136-.113.192-.113.056 0 .102.034.192.113l.62.587c.114.09.34.271.712.18l3.432-.925c.463-.124.644-.395.711-.497.113-.169.215-.316.587-.429 0 0 3.568-1.038 3.613-1.05.361-.112.52-.383.621-.564.101-.18.17-.192.248-.203.102-.023.249-.045.373-.271l.158-.271c.068-.113.113-.124.192-.136.09-.022.214-.045.305-.203l.169-.293c.079-.136.09-.271.022-.384zm-6.604.79v1.693H6.65v-1.693H17.35zm-3.838 4.188c-.26 0-.35-.225-.418-.406-.079-.203-.497-1.535-.62-1.897h.53c.282.486.801 1.344 1.027 1.705.045.068.158.26.361.384-.812.214-.79.214-.88.214zm1.253-.338c-.294 0-.452-.226-.542-.373a93.2 93.2 0 0 1-.96-1.592h.587c.373.396 1.152 1.22 1.457 1.536.045.045.147.147.293.237-.722.18-.722.192-.835.192zm1.197-.328c-.226 0-.396-.158-.508-.27-.271-.272-.915-.949-1.31-1.378h.643c.407.305 1.344.994 1.716 1.242.068.045.204.124.362.18-.836.226-.813.226-.903.226zm1.512-.632c-.101.158-.18.237-.36.237-.17 0-.34-.079-.486-.18a74.238 74.238 0 0 1-1.468-1.062h.768c.937.463 1.332.678 1.591.757l.136.034c-.08.056-.124.135-.18.214zm.283-.44c-.215 0-.497-.147-1.355-.576h.835l1.174.294c.08.022.158.034.226.056-.666.203-.767.226-.88.226zm2.28-.632c-.689.203-.801.248-.993.248a2.16 2.16 0 0 1-.587-.102l-.926-.237v-.327l2.506.418zm.723-.204c-.226.057-.43.034-.745-.022l-2.462-.407v-.26l4.03.452-.823.237zm1.512-.756c-.033.057-.067.113-.101.158-.136.192-.226.18-.655.136l-3.985-.452v-.248l4.595.27c.034 0 .124.012.225.012-.022.034-.056.079-.079.124zm.78-.756s-.09.146-.125.225c-.135.215-.203.215-.587.181l-4.798-.282v-.203h5.566c-.023.034-.034.056-.057.079zm.688-.633-.124.215c-.09.135-.124.135-.418.135h-9.991c.102-.124.135-.248.248-.36.192-.193.35-.193.497-.193h9.675c.068 0 .113.023.136.057a.183.183 0 0 1-.023.146zm-12.757 4.663c.045-.056.079-.135.135-.271.08-.203.52-1.592.644-1.976h.485c.125.396.565 1.773.644 1.976.045.136.09.215.135.271-.011-.011-.034-.023-.045-.034l-.62-.587c-.102-.09-.204-.18-.35-.18s-.26.09-.35.18l-.622.587c-.022.011-.045.023-.056.034zm-1.377-.17c.203-.124.327-.315.36-.383.227-.35.746-1.22 1.028-1.705h.53a77.913 77.913 0 0 1-.62 1.897c-.068.18-.158.406-.418.406-.09.011-.068.011-.88-.214zM8.41 13.9a1 1 0 0 0 .293-.238 70.326 70.326 0 0 0 1.457-1.535h.587a93.026 93.026 0 0 1-.96 1.592c-.09.147-.248.372-.542.372-.113.012-.124 0-.835-.191zm-1.264-.35c.158-.046.293-.136.36-.181.373-.248 1.31-.937 1.717-1.242h.643a63.242 63.242 0 0 1-1.31 1.377c-.112.113-.27.271-.507.271-.09 0-.08 0-.903-.225zm-.79-.633c.044-.01.09-.01.135-.034.27-.079.666-.282 1.592-.756h.767c-.463.339-1.163.847-1.467 1.061a.856.856 0 0 1-.486.18c-.18 0-.26-.078-.361-.236-.057-.068-.113-.147-.18-.215zm-.983-.429c.068-.01.147-.033.226-.056l1.174-.294h.835c-.858.43-1.14.576-1.354.576-.125-.011-.226-.034-.88-.226zm1.095-.835v.327l-.926.237c-.282.068-.451.102-.587.102-.192 0-.304-.045-.993-.248l2.506-.418zm-4.03-.023 4.03-.451v.26l-2.46.406c-.328.056-.532.079-.746.022l-.824-.237zm-.79-.643c.09-.011.191-.011.225-.011l4.595-.271v.248l-3.985.452c-.429.045-.52.056-.655-.136-.034-.045-.068-.101-.101-.158-.023-.045-.046-.09-.08-.124zm-.746-.7h5.566v.203l-4.798.282c-.384.023-.451.034-.587-.18l-.124-.226c-.023-.034-.045-.056-.057-.08zm-.654-.711c.022-.034.067-.057.135-.057h9.675c.147 0 .316 0 .497.192.113.113.147.237.248.361H.813c-.294 0-.328 0-.419-.135L.27 9.721C.236 9.665.225 9.61.248 9.575z"/></svg>