<svg role="img" viewBox="0 0 24 24" xmlns="http://www.w3.org/2000/svg"><title>BP</title><path d="M4.578 8.615h-.006.006zm16.624.366-.112.151a11.383 11.383 0 0 1-1.329 1.495c.614.265 1.204.583 1.762.952l.154.102a17.135 17.135 0 0 0 2.148-1.77 16.744 16.744 0 0 0-2.623-.93zM6.875 20.043c-.04-.67-.022-1.344.056-2.01-.64.192-1.295.329-1.959.407l-.186.022a16.89 16.89 0 0 0-.507 2.735c.897-.244 1.765-.58 2.608-.97l-.012-.184zm3.052 1.269a11.444 11.444 0 0 1-.63-1.901c-.535.396-1.103.747-1.697 1.047l-.168.086c.082.924.224 1.841.46 2.739a16.989 16.989 0 0 0 2.109-1.8l-.074-.171zM4.435 17.8a11.6 11.6 0 0 1 .739-1.86 11.762 11.762 0 0 1-1.984-.287l-.184-.043a16.36 16.36 0 0 0-1.404 2.4c.925.072 1.852.053 2.776-.023l.057-.187zm-1.958-6.221a11.373 11.373 0 0 1 1.762-.952c-.486-.458-.93-.958-1.329-1.495l-.112-.15c-.896.244-1.776.544-2.623.928a17.13 17.13 0 0 0 2.148 1.77l.154-.101zm.425 3.289c.4-.54.848-1.043 1.337-1.503a11.374 11.374 0 0 1-1.762-.952l-.155-.102a17.135 17.135 0 0 0-2.147 1.77 16.75 16.75 0 0 0 2.621.93l.106-.143zm18.62-2.454c-.56.367-1.15.685-1.764.95.483.457.929.953 1.33 1.484l.12.159c.891-.243 1.767-.54 2.608-.926a16.497 16.497 0 0 0-2.138-1.77l-.156.103zm-8.278 9.044a11.234 11.234 0 0 1-1.25-1.574 11.552 11.552 0 0 1-1.245 1.573l-.12.127c.395.84.844 1.654 1.375 2.416.249-.38.842-1.246 1.383-2.39l-.143-.152zm7.562-5.823c-.655.158-1.324.258-1.996.297.303.602.553 1.23.747 1.876l.052.171c.925.08 1.855.099 2.781.023a17.508 17.508 0 0 0-1.418-2.407l-.166.04zM3.198 8.347c.649-.15 1.31-.247 1.976-.286-.3-.597-.547-1.22-.74-1.86l-.053-.18a16.739 16.739 0 0 0-2.78-.023c.401.837.88 1.63 1.408 2.393l.19-.044zm15.82 10.101a11.88 11.88 0 0 1-1.953-.409c.078.663.095 1.332.051 1.998l-.012.19c.843.39 1.71.726 2.608.97a16.902 16.902 0 0 0-.504-2.725l-.19-.024zm-2.626 2.003c-.594-.3-1.163-.65-1.698-1.047-.154.652-.365 1.29-.629 1.906l-.071.167a17.063 17.063 0 0 0 2.114 1.806c.235-.9.377-1.818.46-2.744l-.176-.088zM4.971 5.56a11.44 11.44 0 0 1 1.962.402c-.077-.663-.1-1.332-.066-1.999l.01-.195a16.587 16.587 0 0 0-2.598-.965c.088.925.269 1.837.507 2.735l.185.022zm14.587.638a11.28 11.28 0 0 1-.736 1.86c.668.038 1.332.135 1.982.29l.18.043a16.965 16.965 0 0 0 1.414-2.401 17.445 17.445 0 0 0-2.786.024l-.054.184zm-2.442-2.241c.041.668.023 1.34-.055 2.004.64-.19 1.296-.325 1.96-.401l.185-.022c.238-.897.419-1.81.506-2.735a16.58 16.58 0 0 0-2.607.97l.011.184zM10.75 2.543c.462.49.881 1.02 1.25 1.581a12.06 12.06 0 0 1 1.242-1.571l.129-.138A16.405 16.405 0 0 0 11.996 0a17.071 17.071 0 0 0-1.371 2.411l.124.132zm-3.158.998c.597.3 1.167.652 1.704 1.05.154-.65.366-1.289.632-1.903l.073-.17a17.522 17.522 0 0 0-2.108-1.8A16.676 16.676 0 0 0 7.43 3.46l.16.08zm6.473-.846c.266.612.477 1.246.63 1.894a11.875 11.875 0 0 1 1.697-1.048l.17-.085A16.662 16.662 0 0 0 16.1.717a16.98 16.98 0 0 0-2.113 1.803l.076.175zm2.387 7.682zm-8.901 0c-.006-.004-.01-.01-.016-.015l.015.015zm11.785.636-.209.17a8.07 8.07 0 0 1-1.213.816 7.98 7.98 0 0 1 1.214.82l.2.162a11.032 11.032 0 0 0 1.92-.985c-.6-.396-1.246-.713-1.912-.983zm-2.6.983.006-.003c-.003 0-.005.002-.007.003zm-7.602 6.576a8.117 8.117 0 0 1-.098-1.44c-.415.25-.852.463-1.307.637l-.25.095c-.1.712-.148 1.43-.104 2.149a11.34 11.34 0 0 0 1.803-1.163l-.044-.278zm-3.549-3.37c.25-.42.536-.815.857-1.181a8.117 8.117 0 0 1-1.416-.351l-.253-.088a10.866 10.866 0 0 0-1.469 1.584c.705.164 1.424.24 2.146.266l.135-.23zm1.475 2.005c.092-.48.227-.947.402-1.4a8.258 8.258 0 0 1-1.438.15l-.276.005a11.122 11.122 0 0 0-.834 1.982 10.953 10.953 0 0 0 2.096-.481l.05-.256zM4.872 12.81a7.963 7.963 0 0 1 1.191-.809 8.086 8.086 0 0 1-1.199-.81l-.21-.173c-.662.27-1.304.584-1.901.978.6.396 1.247.713 1.913.983l.206-.169zm2.854-6.579c.458.173.897.387 1.314.639-.01-.486.023-.971.102-1.453l.041-.257a11.116 11.116 0 0 0-1.817-1.173c-.035.72.015 1.438.113 2.15l.247.094zm-2.95 4.183.241-.084c.465-.16.942-.278 1.426-.352a8.109 8.109 0 0 1-.858-1.18l-.137-.229c-.719.026-1.435.102-2.136.265.43.579.93 1.098 1.464 1.58zM6.02 8.042c.484.006.964.055 1.436.146a7.891 7.891 0 0 1-.398-1.397l-.049-.26a10.922 10.922 0 0 0-2.096-.475c.208.69.499 1.347.834 1.983l.273.003zm11.96 7.916a8.006 8.006 0 0 1-1.445-.148c.175.452.309.92.399 1.399l.048.26c.684.221 1.382.395 2.096.483-.208-.692-.5-1.353-.838-1.991l-.26-.003zm-6.42 3.205a8.162 8.162 0 0 1-.596-1.338 8.17 8.17 0 0 1-1.01 1.047l-.204.178c.15.706.35 1.4.636 2.064a11.04 11.04 0 0 0 1.303-1.717l-.13-.234zm7.675-5.575-.26.09a8.05 8.05 0 0 1-1.412.35c.317.364.602.756.852 1.173l.132.222c.72-.027 1.44-.104 2.141-.274-.43-.57-.925-1.082-1.453-1.56zm-2.969 4.181a7.91 7.91 0 0 1-1.312-.636c.008.484-.026.969-.104 1.45l-.041.255c.568.441 1.165.842 1.808 1.166a10.458 10.458 0 0 0-.1-2.14l-.25-.095zM14.03 18.88a8.166 8.166 0 0 1-1.007-1.043 8.32 8.32 0 0 1-.589 1.325l-.13.236a10.7 10.7 0 0 0 1.303 1.716c.282-.66.481-1.35.633-2.052l-.21-.182zm-4.402-2.772-.002.002m.002 2.384.007-.007M7.87 16.144c-.01.027-.014.056-.023.084.01-.028.013-.057.023-.084zm1.703.002c.017-.013.036-.023.053-.036-.017.013-.036.023-.053.036zm2.86-11.31c.239.426.437.871.594 1.33a8.17 8.17 0 0 1 1.003-1.038l.212-.184a10.733 10.733 0 0 0-.635-2.05 11.36 11.36 0 0 0-1.3 1.715l.126.227zm2.418.587c.08.48.115.963.107 1.445.415-.25.852-.463 1.307-.637l.25-.095c.099-.712.147-1.43.103-2.149-.643.327-1.242.729-1.812 1.17l.045.266zM9.96 5.118a7.98 7.98 0 0 1 1.01 1.042c.157-.457.354-.899.59-1.323l.13-.234a11.022 11.022 0 0 0-1.303-1.717 10.85 10.85 0 0 0-.635 2.051l.21.181zm6.972 1.675a8.05 8.05 0 0 1-.403 1.401c.476-.093.96-.144 1.447-.152l.27-.004c.336-.635.627-1.292.831-1.982a10.89 10.89 0 0 0-2.094.474l-.05.263zm1.483 2.004a7.92 7.92 0 0 1-.85 1.175c.478.074.949.191 1.409.35l.254.088a10.866 10.866 0 0 0 1.46-1.576 10.77 10.77 0 0 0-2.137-.267l-.136.23zm-7.238.955c-.15-.8-.15-1.62 0-2.42a7.489 7.489 0 0 0-1.543-1.835 7.436 7.436 0 0 0 0 2.395 6.708 6.708 0 0 1 1.543 1.86zm1.635 4.496c.15.8.15 1.62 0 2.42a7.675 7.675 0 0 0 1.544 1.835c.128-.793.13-1.601.008-2.395a6.59 6.59 0 0 1-1.552-1.86zM9.627 7.892A7.533 7.533 0 0 0 7.55 6.699c.148.79.424 1.55.817 2.252a6.412 6.412 0 0 1 2.086 1.21 6.561 6.561 0 0 1-.826-2.27zm4.738 8.216c.623.508 1.325.91 2.077 1.193a7.404 7.404 0 0 0-.817-2.252 6.692 6.692 0 0 1-2.094-1.21c.423.695.706 1.466.834 2.27zm-4.438-5.305A6.45 6.45 0 0 1 8.375 8.95a7.514 7.514 0 0 0-2.36-.409c.411.689.93 1.308 1.535 1.835a6.463 6.463 0 0 1 2.377.426zm4.146 2.394a6.45 6.45 0 0 1 1.552 1.852 7.5 7.5 0 0 0 2.36.409 7.618 7.618 0 0 0-1.535-1.835 6.433 6.433 0 0 1-2.377-.426zm-4.438-1.61a6.433 6.433 0 0 1-2.094-1.201c-.804.014-1.6.154-2.36.417.621.507 1.32.913 2.068 1.201a6.38 6.38 0 0 1 2.386-.417zm4.722.826c.766.27 1.476.68 2.093 1.21a7.626 7.626 0 0 0 2.361-.418 7.52 7.52 0 0 0-2.077-1.2 6.412 6.412 0 0 1-2.377.408zm-7.1-.417a7.472 7.472 0 0 0-2.068 1.201c.76.263 1.557.403 2.36.417a6.433 6.433 0 0 1 2.094-1.201 6.32 6.32 0 0 1-2.385-.417zm9.477 0a7.642 7.642 0 0 0 2.077-1.201 7.626 7.626 0 0 0-2.36-.418 6.433 6.433 0 0 1-2.094 1.202 6.59 6.59 0 0 1 2.377.417zm-6.807 1.201a6.433 6.433 0 0 1-2.377.426 7.431 7.431 0 0 0-1.535 1.835 7.758 7.758 0 0 0 2.36-.409 6.192 6.192 0 0 1 1.552-1.852zm4.146-2.394a6.433 6.433 0 0 1 2.377-.426 7.431 7.431 0 0 0 1.535-1.835c-.803.013-1.6.151-2.36.409a6.45 6.45 0 0 1-1.552 1.852zm-2.903 5.864c.155.79.434 1.55.826 2.253a7.82 7.82 0 0 0 .826-2.253 6.574 6.574 0 0 1-.826-2.269 6.41 6.41 0 0 1-.826 2.27zm.008-2.419A6.417 6.417 0 0 1 9.627 16.1a7.68 7.68 0 0 0 0 2.394 7.675 7.675 0 0 0 1.543-1.835 6.692 6.692 0 0 1 .008-2.41zm-2.811.801a7.631 7.631 0 0 0-.817 2.252 7.655 7.655 0 0 0 2.077-1.193c.134-.8.414-1.57.826-2.269a6.565 6.565 0 0 1-2.086 1.21zm4.455-7.716a7.583 7.583 0 0 0-.826-2.253 7.731 7.731 0 0 0-.826 2.253c.414.698.694 1.467.826 2.269a6.495 6.495 0 0 1 .826-2.27zm-.009 2.419A6.437 6.437 0 0 1 14.365 7.9a7.432 7.432 0 0 0-.008-2.394 7.675 7.675 0 0 0-1.544 1.835 6.164 6.164 0 0 1 0 2.41zm2.812-.801a7.635 7.635 0 0 0 .817-2.252 7.655 7.655 0 0 0-2.077 1.193 6.475 6.475 0 0 1-.834 2.269 6.692 6.692 0 0 1 2.094-1.21z"/></svg>